# xmcd CD database file
#
# Track frame offsets:
#	150
#	23988
#	43919
#	66977
#	78966
#	105525
#	124559
#	151690
#	172370
#	201175
#
# Disc length: 3098 seconds
#
# Revision: 1
# Processed by: cddbd v1.4PL0 Copyright (c) Steve Scherf et al.
# Submitted via: CDex 1.51
#
DISCID=830c180a
DTITLE=Gotan Project - La Revancha Del Tango
DYEAR=1900
DGENRE=New Age
TTITLE0=Queremos Paz
TTITLE1=Epoca
TTITLE2=Chunga's Revenge
TTITLE3=Triptico
TTITLE4=Santa Maria (Del Buen Ayre)
TTITLE5=Una Musica Brutal
TTITLE6=El Capitalismo Foraneo
TTITLE7=Last Tango In Paris
TTITLE8=La Del Ruso
TTITLE9=Vuelvo Al Sur
EXTD=
EXTT0=
EXTT1=
EXTT2=
EXTT3=
EXTT4=
EXTT5=
EXTT6=
EXTT7=
EXTT8=
EXTT9=
PLAYORDER=
